<svg xmlns="http://www.w3.org/2000/svg" xmlns:xlink="http://www.w3.org/1999/xlink" width="12" height="12" viewBox="0 0 12 12"><defs><path id="exp3a" d="M1127.92 723.81l.01.01v7.27c0 .03-.02.05-.03.08a1 1 0 0 1-.66.71l-.15.05h-10.25l-.03-.02c-.53-.13-.81-.5-.81-1.03v-6.87a1 1 0 0 1 1.03-1.03H1118.98v-1.47c0-.85.66-1.5 1.5-1.5h2.97c.84 0 1.5.65 1.5 1.49v1.48h1.84c.64 0 .94.22 1.13.83zm-7.94-2.28V722.98h3.97v-.1-1.35c0-.33-.2-.53-.53-.53h-2.91c-.33 0-.53.2-.53.53zm4.96 4.93h-1.98v-1.98h-2v1.99H1119v1.99h1.98v1.97h2v-1.98h1.97z"/></defs><g><g transform="translate(-1116 -720)"><use fill="#ff3055" xlink:href="#exp3a"/></g></g></svg>