<svg width="14" height="14" viewBox="0 0 14 14" fill="none" xmlns="http://www.w3.org/2000/svg">
<g opacity="0.8">
<rect width="14" height="14" fill="black" fill-opacity="0"/>
<mask id="mask0" mask-type="alpha" maskUnits="userSpaceOnUse" x="0" y="0" width="14" height="14">
<path fill-rule="evenodd" clip-rule="evenodd" d="M0 0H14V13.1243H0V0Z" fill="white"/>
</mask>
<g mask="url(#mask0)">
<path fill-rule="evenodd" clip-rule="evenodd" d="M14 0.711086V9.78921C13.9938 9.79553 13.9845 9.80081 13.982 9.80832C13.8165 10.3043 13.5412 10.5007 13.018 10.5005C11.3414 10.4997 9.66492 10.4993 7.98839 10.503C7.91741 10.5032 7.83705 10.5315 7.77719 10.571C7.48483 10.7644 7.19789 10.966 6.90916 11.1649C6.02049 11.777 5.13004 12.3865 4.24495 13.0038C4.08513 13.1153 3.92979 13.1675 3.75009 13.0811C3.56516 12.9921 3.49784 12.8345 3.4988 12.6339C3.50197 11.9734 3.5 11.3128 3.50003 10.6522V10.5003H3.33271C2.51724 10.5002 1.70174 10.5013 0.886266 10.4996C0.483246 10.4988 0.158566 10.2577 0.0347539 9.87441C0.025375 9.84532 0.0117031 9.81759 0 9.78921V0.711086C0.00617969 0.70477 0.0155039 0.699493 0.0180469 0.691946C0.182027 0.200196 0.456449 0.000148817 0.967887 0.000148817C2.59377 0.000148817 4.21966 0.000148817 5.84555 0.000148817C8.25932 0.000148817 10.6731 0.000367567 13.0869 -1.52452e-05C13.464 -6.99327e-05 13.741 0.164786 13.9142 0.499555C13.949 0.566848 13.9717 0.64043 14 0.711086" />
</g>
</g>
</svg>
