<svg width="36" height="36" viewBox="0 0 36 36" fill="none" xmlns="http://www.w3.org/2000/svg">
<g filter="url(#filter0_d)">
<rect width="28" height="28" fill="black" fill-opacity="0" transform="translate(4)"/>
<path fill-rule="evenodd" clip-rule="evenodd" d="M18 28C25.732 28 32 21.732 32 14C32 6.26801 25.732 0 18 0C10.268 0 4 6.26801 4 14C4 21.732 10.268 28 18 28Z" fill="#FF3055"/>
<path fill-rule="evenodd" clip-rule="evenodd" d="M13.7816 13.9992C13.7816 13.6001 13.7828 13.2007 13.7813 12.8015C13.7797 12.4986 13.6167 12.3364 13.3094 12.3355C12.692 12.3334 12.0746 12.3334 11.4572 12.3352C11.1731 12.3361 11.0028 12.5041 11.0019 12.7878C10.9994 13.5916 10.9994 14.395 11.0016 15.1985C11.0025 15.5023 11.1679 15.6639 11.4743 15.6645C12.0865 15.6663 12.6987 15.6663 13.3112 15.6645C13.6177 15.6636 13.78 15.5011 13.7813 15.197C13.7828 14.7978 13.7816 14.3987 13.7816 13.9992V13.9992ZM24.9876 14.0008C24.9876 13.6017 24.9876 13.2026 24.9879 12.8034C24.9879 12.4922 24.8356 12.3365 24.524 12.3356C23.9069 12.3344 23.2895 12.3341 22.6724 12.3359C22.37 12.3365 22.2003 12.5039 22.1994 12.804C22.1978 13.6026 22.1978 14.4006 22.1997 15.1992C22.2003 15.4911 22.3709 15.6637 22.6605 15.6649C23.2776 15.667 23.8947 15.667 24.5121 15.6649C24.8222 15.6637 24.9861 15.496 24.9876 15.183C24.9894 14.789 24.9882 14.3951 24.9876 14.0008V14.0008ZM21.7689 16.6894C20.8475 16.6894 19.9261 16.6881 19.0048 16.69C18.6871 16.6906 18.5284 16.8488 18.5277 17.1667C18.5259 17.9503 18.5259 18.7339 18.5277 19.5175C18.5284 19.8397 18.6926 19.9991 19.0185 19.9994C20.8362 20 22.6539 20 24.4712 19.9994C24.8534 19.9991 24.9978 19.8568 24.9984 19.4806C24.9996 18.7171 24.9993 17.9537 24.9984 17.1902C24.9981 16.8323 24.8522 16.6897 24.4877 16.6894C23.5813 16.6891 22.6753 16.6894 21.7689 16.6894V16.6894ZM14.236 16.6894C13.3146 16.6894 12.3933 16.6885 11.4719 16.6897C11.1777 16.6903 11.005 16.8397 11.0037 17.1093C10.9991 17.9284 10.997 18.7474 11.008 19.5664C11.0095 19.6749 11.0667 19.8156 11.1472 19.8816C11.2386 19.9561 11.3854 19.9946 11.5083 19.9949C13.3308 20.0019 15.1534 19.9998 16.9762 19.9995C17.3099 19.9995 17.4722 19.8388 17.4729 19.5078C17.4741 18.734 17.4744 17.9604 17.4735 17.1869C17.4729 16.843 17.3178 16.69 16.9701 16.6897C16.0589 16.6885 15.1476 16.6894 14.236 16.6894V16.6894ZM21.7688 11.3113C22.6804 11.3113 23.5917 11.3113 24.503 11.311C24.8445 11.311 24.9996 11.1601 24.9999 10.8254C25.0005 10.0467 25.0008 9.26798 24.9999 8.48956C24.9996 8.15516 24.8433 8.00094 24.5033 8.00094C22.6755 8.00033 20.8478 8.00003 19.02 8.00094C18.6864 8.00125 18.5289 8.16005 18.5283 8.49658C18.5271 9.25485 18.5271 10.0134 18.528 10.7717C18.5283 11.1724 18.6665 11.3107 19.0653 11.3113C19.9665 11.3119 20.8676 11.3116 21.7688 11.3113V11.3113ZM14.2167 11.3107C15.1384 11.3107 16.0595 11.3116 16.9808 11.3104C17.3184 11.3098 17.4719 11.1558 17.4725 10.8175C17.4741 10.0488 17.4738 9.28048 17.4725 8.51213C17.4722 8.15117 17.3163 8 16.9499 8H11.5282C11.1505 8 11.001 8.1475 11.001 8.52037C11.001 9.27345 11.0013 10.0268 11.0013 10.7799C11.0013 11.1717 11.1383 11.3104 11.5288 11.3107C12.4248 11.311 13.3207 11.3107 14.2167 11.3107V11.3107ZM18.0039 12.3352C17.0924 12.3352 16.1808 12.3349 15.2695 12.3352C14.9224 12.3355 14.7655 12.4885 14.7649 12.8321C14.7634 13.6059 14.7631 14.3795 14.7649 15.1533C14.7655 15.517 14.9172 15.6651 15.2854 15.6654C17.1083 15.666 18.9311 15.6657 20.754 15.6654C21.0668 15.6651 21.235 15.5008 21.2356 15.1903C21.2377 14.4014 21.2377 13.6126 21.2362 12.8238C21.2356 12.4913 21.0753 12.3355 20.7381 12.3355C19.8268 12.3349 18.9152 12.3352 18.0039 12.3352V12.3352Z" fill="white"/>
</g>
<defs>
<filter id="filter0_d" x="0" y="0" width="36" height="36" filterUnits="userSpaceOnUse" color-interpolation-filters="sRGB">
<feFlood flood-opacity="0" result="BackgroundImageFix"/>
<feColorMatrix in="SourceAlpha" type="matrix" values="0 0 0 0 0 0 0 0 0 0 0 0 0 0 0 0 0 0 255 0"/>
<feOffset dy="4"/>
<feGaussianBlur stdDeviation="2"/>
<feColorMatrix type="matrix" values="0 0 0 0 0 0 0 0 0 0 0 0 0 0 0 0 0 0 0.25 0"/>
<feBlend mode="normal" in2="BackgroundImageFix" result="effect1_dropShadow"/>
<feBlend mode="normal" in="SourceGraphic" in2="effect1_dropShadow" result="shape"/>
</filter>
</defs>
</svg>
