<svg viewBox="0 0 24 24" fill="none" xmlns="http://www.w3.org/2000/svg">
<path fill-rule="evenodd" clip-rule="evenodd" d="M20.3754 18.2803C19.5286 17.671 18.5575 17.3604 17.623 16.9697C16.5944 16.5397 15.5742 16.0896 14.5484 15.6526C14.3834 15.5823 14.3219 15.4821 14.326 15.2967C14.3356 14.8597 14.3146 14.422 14.3134 13.9847C14.3131 13.9039 14.3213 13.7997 14.3696 13.7458C14.871 13.185 15.0517 12.4952 15.1808 11.7827C15.1876 11.7449 15.194 11.707 15.2001 11.6722C15.6781 11.5532 16.047 11.165 16.0717 10.6685C16.0886 10.3317 16.0299 9.98673 15.9684 9.65214C15.9292 9.43843 15.7968 9.26486 15.5244 9.25717C15.5663 8.87261 15.6168 8.50365 15.6452 8.13301C15.7667 6.55037 14.9826 5.32632 13.4931 4.76078C11.9525 4.17587 10.1652 4.59643 9.13889 5.77656C8.50335 6.50729 8.33531 7.35793 8.45798 8.29159C8.49862 8.60068 8.5296 8.91104 8.56715 9.23987C8.20312 9.29359 8.11762 9.57662 8.05926 9.87461C7.96401 10.3608 7.94671 10.8364 8.25871 11.2671C8.44012 11.5176 8.56635 11.6052 8.87728 11.6572C8.9331 11.9087 8.98115 12.1677 9.04898 12.4215C9.17709 12.9008 9.3682 13.3499 9.70467 13.7272C9.75046 13.7786 9.77751 13.8654 9.77751 13.9358C9.77723 14.42 9.77676 14.9048 9.7521 15.3881C9.7477 15.4743 9.64795 15.5943 9.56282 15.6319C8.53579 16.0853 7.50454 16.5291 6.47151 16.9685C6.07696 17.1364 5.66704 17.2696 5.27835 17.4493C4.72176 17.7069 4.17825 17.9926 3.61884 18.2714C0.764995 14.7234 0.517073 8.72139 4.52826 4.62625C8.56153 0.508559 15.1458 0.429715 19.3239 4.48853C23.3903 8.43892 23.3547 14.485 20.3754 18.2803ZM23.8645 10.2801C23.4366 7.39828 22.1325 4.98117 19.9666 3.04097C18.0365 1.31189 15.7614 0.339609 13.1877 0.0602813C13.0105 0.0410156 12.8334 0.0201562 12.6562 0H11.3438C10.989 0.0444844 10.6328 0.079875 10.2796 0.134766C6.74859 0.683719 3.98278 2.45156 1.98816 5.40558C0.821531 7.13334 0.186797 9.05719 0.0427969 11.14C0.0380625 11.2086 0.0147187 11.2759 0 11.3438V12.6562C0.0616406 13.1191 0.110484 13.584 0.186891 14.0443C0.937359 18.5676 4.41684 22.4013 8.8612 23.5655C9.60389 23.76 10.3792 23.8301 11.1394 23.9583C11.2079 23.9698 11.2756 23.986 11.3438 24H12.7031C13.0494 23.9546 13.3962 23.913 13.7418 23.863C18.5089 23.1726 22.456 19.6155 23.6187 14.9345C23.7852 14.2638 23.8466 13.5671 23.9572 12.8826C23.9694 12.8068 23.9857 12.7317 24 12.6562V11.3438C23.9552 10.9891 23.917 10.6335 23.8645 10.2801Z" fill="white"/>
</svg>
