<svg width="16" height="16" viewBox="0 0 16 16" fill="none" xmlns="http://www.w3.org/2000/svg">
<rect width="16" height="16" fill="black" fill-opacity="0"/>
<path fill-rule="evenodd" clip-rule="evenodd" d="M0 8.00011C4.49565e-06 4.76324 1.95056 1.84536 4.94155 0.607912C7.93254 -0.629533 11.3745 0.0573509 13.6614 2.34807C15.9483 4.63878 16.6294 8.08186 15.387 11.0708C14.1445 14.0597 11.2234 16.0054 7.98655 16C3.57568 15.9875 0.00512239 12.411 0 8.00011ZM8.00022 1.45755C4.38612 1.45902 1.45751 4.39002 1.45898 8.00412C1.46046 11.6182 4.39146 14.5468 8.00556 14.5454C11.6197 14.5439 14.5483 11.6129 14.5468 7.99879C14.5416 4.38621 11.6128 1.45975 8.00022 1.45755ZM8.71941 5.59081C8.71941 6.2388 8.71941 6.88545 8.73275 7.53344C8.73275 7.63273 8.77094 7.72821 8.83941 7.80011C9.4394 8.4161 10.0527 9.02275 10.6661 9.63608C10.8607 9.8103 10.9469 10.0756 10.8917 10.3309C10.8366 10.5863 10.6486 10.7924 10.3994 10.8707C10.1467 10.9608 9.86473 10.894 9.6794 10.7001C8.93274 9.97207 8.21275 9.24008 7.47943 8.50676C7.34774 8.37139 7.27572 8.18893 7.27943 8.0001V3.6375C7.27943 3.23986 7.60178 2.91751 7.99942 2.91751C8.39706 2.91751 8.71941 3.23986 8.71941 3.6375C8.73275 4.29082 8.71941 4.94415 8.71941 5.59747V5.59747V5.59081Z" fill="#A0A7B2"/>
</svg>
