<svg width="9" height="19" viewBox="0 0 9 19" fill="none" xmlns="http://www.w3.org/2000/svg">
<path fill-rule="evenodd" clip-rule="evenodd" d="M8.92566 5.9176C8.82789 7.01204 8.73566 8.05537 8.63789 9.14871C8.12122 9.14871 7.629 9.14093 7.13789 9.15093C6.81344 9.1576 6.38455 9.07426 6.19566 9.24537C6.03122 9.39426 6.12455 9.84204 6.12455 10.1587C6.12122 12.6565 6.12233 15.1543 6.12233 17.652C6.12233 18.1232 6.12011 18.1243 5.64122 18.1243C4.67344 18.1254 3.70566 18.1254 2.73678 18.1243C2.25789 18.1243 2.25566 18.1232 2.25566 17.6532C2.25566 14.9687 2.25566 12.2832 2.25566 9.59871C2.25566 9.14871 2.25455 9.14871 1.80233 9.14871H0.555664V5.9176C0.986775 5.9176 1.42233 5.8976 1.85566 5.92426C2.18233 5.94315 2.25789 5.82315 2.26344 5.51204C2.28011 4.64537 2.26233 3.76871 2.39455 2.9176C2.63566 1.35426 3.80678 0.295375 5.38233 0.183152C6.44344 0.107597 7.51233 0.134263 8.579 0.11093C8.779 0.107597 8.84566 0.196486 8.84344 0.389819C8.83789 1.26982 8.83566 2.15093 8.84566 3.03093C8.849 3.26649 8.75566 3.3376 8.53344 3.33426C7.98344 3.32537 7.43344 3.32871 6.88344 3.33315C6.37455 3.33649 6.13455 3.56649 6.12566 4.07426C6.11789 4.58093 6.13566 5.0876 6.11789 5.59315C6.10789 5.86537 6.22233 5.92537 6.47011 5.92204C7.26122 5.90982 8.05233 5.9176 8.92566 5.9176" fill="white"/>
</svg>
