<svg width="16" height="16" viewBox="0 0 16 16" fill="none" xmlns="http://www.w3.org/2000/svg">
<path fill-rule="evenodd" clip-rule="evenodd" d="M11.0879 4.39979H13.4257V2.06201H11.0879V4.39979ZM10.1434 7.75064C10.1368 6.42953 9.06789 5.35842 7.749 5.35064C6.43011 5.34175 5.31233 6.46397 5.32233 7.78508C5.33344 9.10508 6.40233 10.164 7.73011 10.1695C9.08678 10.174 10.1501 9.10842 10.1434 7.75064V7.75064ZM1.7397 6.24432C1.7397 8.07098 1.73304 9.81543 1.74193 11.5599C1.74748 12.8543 2.55526 13.7232 3.84859 13.7365C6.43193 13.7665 9.01748 13.7632 11.6008 13.7377C12.893 13.7254 13.7053 12.8599 13.7119 11.5665C13.7186 9.90765 13.7141 8.24876 13.713 6.58987C13.713 6.48987 13.6975 6.39099 13.6886 6.27321H11.7341C12.2541 8.26987 11.8164 9.94099 10.1419 11.1754C8.7797 12.1788 6.93526 12.2332 5.51526 11.2888C3.70526 10.0843 3.2097 8.36432 3.73637 6.28321C3.62082 6.26876 3.5197 6.24654 3.4197 6.24654C2.88304 6.24321 2.34415 6.24432 1.7397 6.24432V6.24432ZM7.72478 0.225289C9.24367 0.225289 10.7626 0.216401 12.2803 0.228623C14.1848 0.243067 15.2581 1.33085 15.2592 3.23418C15.2614 6.25307 15.2615 9.27307 15.2581 12.292C15.2548 14.142 14.1403 15.2542 12.287 15.2564C9.26812 15.2597 6.24812 15.2608 3.22923 15.2586C1.33034 15.2575 0.238118 14.1797 0.23034 12.2731C0.219229 9.2364 0.22034 6.19862 0.232562 3.16196C0.24034 1.31418 1.31812 0.244178 3.17034 0.229734C4.68812 0.218623 6.20701 0.227512 7.72478 0.227512V0.225289Z" />
</svg>
