<svg width="28" height="28" viewBox="0 0 28 28" fill="none" xmlns="http://www.w3.org/2000/svg">
<rect width="28" height="28" fill="black" fill-opacity="0"/>
<path fill-rule="evenodd" clip-rule="evenodd" d="M14 28C21.732 28 28 21.732 28 14C28 6.26801 21.732 0 14 0C6.26801 0 0 6.26801 0 14C0 21.732 6.26801 28 14 28Z" fill="#FF3055"/>
<rect width="17" height="18" fill="black" fill-opacity="0" transform="translate(5 5)"/>
<path fill-rule="evenodd" clip-rule="evenodd" d="M13.9977 9.79749C11.6003 9.79989 9.64886 11.7525 9.64844 14.1497C9.64815 16.5514 11.6104 18.5124 14.0094 18.5078C16.4056 18.5031 18.358 16.5485 18.3589 14.1533C18.3598 11.7497 16.4028 9.79509 13.9977 9.79749V9.79749ZM13.2885 8.30797C13.2937 8.72946 13.5997 9.04262 14.0029 9.04304C14.4096 9.04332 14.7165 8.73201 14.7188 8.31093C14.7213 7.83534 14.7215 7.35975 14.7188 6.88401C14.7165 6.48484 14.3934 6.15854 14.0052 6.15784C13.6149 6.15713 13.2954 6.47749 13.2891 6.88105C13.2852 7.12146 13.2883 7.36187 13.2881 7.60228C13.2881 7.83746 13.2857 8.07278 13.2885 8.30797V8.30797ZM8.89368 14.1617C8.8982 13.7697 8.59536 13.4463 8.20042 13.4402C7.70434 13.4326 7.20784 13.4347 6.71163 13.4396C6.41471 13.4426 6.1575 13.6357 6.05579 13.9147C6.03814 13.9632 6.01865 14.0111 6 14.0593V14.2476C6.01865 14.2959 6.03814 14.3438 6.05565 14.3922C6.15721 14.6726 6.41584 14.8656 6.7105 14.8678C7.20671 14.8715 7.70321 14.8738 8.19929 14.867C8.5873 14.8616 8.88916 14.5476 8.89368 14.1617V14.1617ZM9.4675 17.7022C9.05731 18.0734 8.66703 18.4687 8.29257 18.8762C8.1023 19.0832 8.09016 19.3538 8.21813 19.6115C8.34851 19.8738 8.57239 19.9985 8.87396 20.0194C8.91266 20.0125 8.96789 20.0129 9.01394 19.9924C9.12242 19.9442 9.2463 19.9068 9.32865 19.8281C9.69887 19.4742 10.0663 19.1162 10.416 18.7423C10.6845 18.4552 10.6659 18.0539 10.4039 17.7773C10.1558 17.5156 9.73658 17.4585 9.4675 17.7022V17.7022ZM17.8916 10.7119C18.1652 10.8091 18.4129 10.7437 18.6154 10.5486C18.9729 10.2041 19.3284 9.85636 19.6642 9.49108C19.7772 9.36819 19.8272 9.18753 19.8738 9.09628C19.8488 8.71829 19.7205 8.49074 19.45 8.36248C19.1777 8.23338 18.907 8.26516 18.6908 8.46757C18.3096 8.82466 17.9431 9.19813 17.581 9.5747C17.4341 9.72754 17.3759 9.92713 17.4135 10.1408C17.4628 10.4204 17.6221 10.616 17.8916 10.7119V10.7119ZM18.6056 17.7513C18.3093 17.4733 17.89 17.4906 17.6161 17.7645C17.3403 18.04 17.3304 18.4484 17.5995 18.7548C17.7132 18.884 17.84 19.002 17.9618 19.124C18.1869 19.3499 18.4074 19.5807 18.6399 19.7986C18.8685 20.0128 19.1376 20.0831 19.4342 19.9512C19.7144 19.8264 19.8478 19.5975 19.8764 19.2147C19.8294 19.1217 19.7804 18.9402 19.6675 18.8178C19.3278 18.449 18.9713 18.0946 18.6056 17.7513V17.7513ZM9.44618 10.5888C9.71908 10.8398 10.1409 10.7984 10.3975 10.5375C10.6509 10.2798 10.6892 9.86772 10.4416 9.59821C10.0777 9.20214 9.69549 8.82133 9.30083 8.45577C9.08994 8.26056 8.81987 8.23485 8.55375 8.36424C8.29032 8.49221 8.16305 8.71412 8.13184 9.0729C8.17139 9.1616 8.20387 9.33605 8.30586 9.44594C8.67198 9.84018 9.05025 10.2247 9.44618 10.5888V10.5888ZM21.2672 13.4381C20.7917 13.4353 20.3161 13.4352 19.8405 13.4388C19.4246 13.4419 19.1106 13.7579 19.1143 14.162C19.118 14.5592 19.4313 14.8656 19.8402 14.8693C20.0754 14.8713 20.3107 14.8697 20.5459 14.8697V14.869C20.7863 14.869 21.0267 14.8711 21.2671 14.8684C21.6726 14.8642 21.9938 14.5527 21.9996 14.1613C22.0054 13.7668 21.6779 13.4405 21.2672 13.4381V13.4381ZM14.0131 19.2638C13.6076 19.2597 13.294 19.572 13.2891 19.9886C13.2863 20.2236 13.2885 20.459 13.2885 20.6941H13.2878C13.2878 20.9346 13.286 21.175 13.2882 21.4154C13.2922 21.8256 13.6165 22.1534 14.0107 22.1492C14.4021 22.1449 14.716 21.824 14.7188 21.4182C14.7219 20.9427 14.7218 20.467 14.7195 19.9914C14.7176 19.5833 14.4088 19.2678 14.0131 19.2638V19.2638Z" fill="white"/>
</svg>
