<svg width="28" height="28" viewBox="0 0 28 28" fill="none" xmlns="http://www.w3.org/2000/svg">
<rect width="28" height="28" fill="black" fill-opacity="0"/>
<path fill-rule="evenodd" clip-rule="evenodd" d="M14 28C21.732 28 28 21.732 28 14C28 6.26801 21.732 0 14 0C6.26801 0 0 6.26801 0 14C0 21.732 6.26801 28 14 28Z" fill="#FF3055"/>
<rect width="16" height="10" fill="black" fill-opacity="0" transform="translate(6 9)"/>
<path fill-rule="evenodd" clip-rule="evenodd" d="M21.8626 13.829C21.8529 13.2058 21.3882 12.6765 20.7759 12.5787C20.0982 12.4706 19.4199 12.3662 18.7409 12.2677C18.4754 12.2293 18.2485 12.1399 18.0719 11.9246C17.4168 11.1257 16.7524 10.3344 16.0978 9.53478C15.8066 9.17912 15.4439 8.99919 14.9825 9C13.0603 9.00312 11.1382 9.00258 9.21587 9.00055C8.74197 9 8.36882 9.18807 8.08611 9.56638C7.48936 10.3652 6.89194 11.1631 6.29221 11.9596C6.09533 12.2212 5.99933 12.5117 6 12.8385C6.0019 13.7428 5.99946 14.6471 6.00204 15.5513C6.00231 15.6641 6.01017 15.7797 6.03472 15.8894C6.10129 16.1874 6.24692 16.4382 6.50536 16.6344C6.584 15.1134 7.83363 14.1649 9.12014 14.2857C10.5296 14.4179 11.421 15.6772 11.2761 16.9106H16.0536C15.9173 15.5188 16.9578 14.402 18.2311 14.2795C19.4403 14.163 20.9723 15.1752 20.8373 16.9047C21.3829 16.8298 21.853 16.2761 21.8626 15.6736C21.8724 15.0589 21.8723 14.4438 21.8626 13.829V13.829ZM8.92005 14.8175C7.91748 14.8057 7.07219 15.6285 7.05781 16.6304C7.04303 17.6564 7.8608 18.4978 8.88236 18.5077C9.91314 18.5178 10.7356 17.7103 10.7481 16.6757C10.7605 15.6633 9.93998 14.8296 8.92005 14.8175V14.8175ZM18.4363 14.8175C17.4157 14.8143 16.5808 15.6503 16.586 16.6707C16.591 17.6926 17.4115 18.5088 18.4327 18.5073C19.4524 18.5059 20.2767 17.6837 20.278 16.6665C20.2794 15.6539 19.4496 14.8208 18.4363 14.8175V14.8175Z" fill="white"/>
</svg>
