<svg width="28" height="28" viewBox="0 0 28 28" fill="none" xmlns="http://www.w3.org/2000/svg">
<rect width="28" height="28" fill="black" fill-opacity="0"/>
<path fill-rule="evenodd" clip-rule="evenodd" d="M14 28C21.732 28 28 21.732 28 14C28 6.26801 21.732 0 14 0C6.26801 0 0 6.26801 0 14C0 21.732 6.26801 28 14 28Z" fill="#FF3055"/>
<rect width="12" height="12" fill="black" fill-opacity="0" transform="translate(8 8)"/>
<path fill-rule="evenodd" clip-rule="evenodd" d="M16.9418 16.4514H14.9625V18.4326H12.9724V16.4561H10.9902V14.4662H12.9676V12.4832H14.9613V14.4613H16.9418V16.4514ZM11.979 9.52685C11.9792 9.19862 12.1801 8.9972 12.5081 8.9972C13.479 8.99673 14.4498 8.99697 15.4204 8.99744C15.7493 8.99768 15.9495 9.19673 15.9505 9.52615C15.9519 9.97673 15.951 10.4271 15.9507 10.8777C15.9507 10.908 15.9477 10.9384 15.9455 10.9796H11.9846C11.9825 10.9365 11.979 10.8956 11.979 10.8549C11.9785 10.4123 11.9783 9.96968 11.979 9.52685V9.52685ZM19.9221 11.8137C19.7298 11.2026 19.4301 10.9831 18.7879 10.9831C18.2134 10.9831 17.639 10.9831 17.0644 10.9831H16.9475V10.8511C16.9475 10.4008 16.9486 9.95065 16.9472 9.50029C16.9449 8.66006 16.2865 8.00218 15.4456 8.001C14.4595 7.99959 13.4734 7.99982 12.4875 8.00076C11.6404 8.00194 10.9839 8.66076 10.9828 9.50924C10.9818 9.99418 10.9825 10.4794 10.9825 10.9831H10.8569C10.2472 10.9831 9.63782 10.9826 9.02841 10.9831C8.43053 10.9836 8.00041 11.4128 8.00018 12.0102C7.99994 14.3008 7.99994 16.5911 8.00018 18.8817C8.00018 19.4177 8.28488 19.7796 8.81006 19.9128C8.82041 19.9154 8.82935 19.9245 8.83876 19.9306H19.0912C19.1418 19.9144 19.1929 19.8996 19.243 19.8822C19.5896 19.7601 19.8086 19.5198 19.9044 19.1659C19.9112 19.1408 19.9214 19.1165 19.9301 19.0916V11.8219C19.9272 11.8191 19.923 11.817 19.9221 11.8137V11.8137Z" fill="white"/>
</svg>
