<svg viewBox="0 0 18 18" fill="none" xmlns="http://www.w3.org/2000/svg">
<path fill-rule="evenodd" clip-rule="evenodd" d="M11.1067 2.16104V2.55972C11.108 2.8982 11.108 2.8982 10.7905 3.02262C9.95465 3.34638 9.48653 4.20529 9.648 5.10834C9.79726 5.9338 10.5843 6.57731 11.4554 6.584C11.6996 6.58534 11.9425 6.57998 12.1867 6.58534C12.4215 6.59202 12.5694 6.72313 12.5748 6.91712C12.5816 7.14322 12.4418 7.27701 12.1894 7.27835C11.3943 7.27968 10.5992 7.28236 9.80404 7.27433C9.64935 7.27299 9.60458 7.32116 9.60865 7.471C9.61679 7.84827 9.61408 8.22689 9.60865 8.60416C9.60729 8.72992 9.63307 8.78879 9.77962 8.78477C10.169 8.77541 10.5585 8.78477 10.9465 8.77942C11.0659 8.77808 11.1175 8.81153 11.1094 8.93461C11.1012 9.08311 11.1121 9.23295 11.1053 9.38146C11.1012 9.4818 11.1365 9.52862 11.2437 9.52862C11.6603 9.52728 12.0795 9.52728 12.4961 9.52862C12.5897 9.52862 12.6345 9.48849 12.6318 9.39216C12.6291 9.24366 12.6413 9.09516 12.6291 8.94665C12.6182 8.8035 12.6644 8.74196 12.8109 8.69647C13.5925 8.44897 14.1149 7.7787 14.1203 6.92248C14.1271 5.91239 13.2668 5.0856 12.2397 5.08158C11.9886 5.08158 11.7403 5.0856 11.4907 5.08025C11.3115 5.07489 11.1718 4.94646 11.1419 4.77522C11.1175 4.63073 11.2315 4.46349 11.3997 4.41399C11.4703 4.39393 11.5463 4.38857 11.6209 4.38724C12.393 4.3859 13.1651 4.38322 13.9371 4.38991C14.081 4.39125 14.1298 4.34576 14.1271 4.20395C14.1203 3.82667 14.1176 3.4494 14.1271 3.07212C14.1312 2.91559 14.0701 2.8768 13.9222 2.88081C13.545 2.8875 13.1678 2.87947 12.7906 2.88482C12.6671 2.88616 12.6237 2.84602 12.6304 2.72696C12.6386 2.57845 12.6399 2.42861 12.6264 2.28011C12.6237 2.23864 12.5612 2.16639 12.526 2.16639C12.0633 2.15837 11.5992 2.16104 11.1067 2.16104ZM17.8084 6.02076C17.7826 6.21207 17.7609 6.40338 17.7311 6.59336C17.3321 9.03093 15.9454 10.6818 13.5654 11.4137C11.5233 12.0424 9.63317 11.609 7.99133 10.2444C6.96688 9.39349 6.32779 8.29913 6.0632 7.00809C5.40375 3.78252 7.52728 0.760301 10.6603 0.123481C13.8897 -0.533407 16.9387 1.50415 17.6334 4.53172C17.6985 4.82471 17.7202 5.1284 17.765 5.42675C17.7759 5.50033 17.7935 5.57124 17.8084 5.64348V6.02076ZM5.72419 17.5575C5.5288 17.5321 5.33612 17.504 5.14208 17.4799C2.7024 17.1869 0.652141 15.33 0.13381 12.9432C-0.513425 9.96785 1.25324 6.99647 4.18955 6.12017C4.25468 6.10144 4.32117 6.08539 4.41208 6.05997C4.46635 7.02055 4.65632 7.93029 5.05253 8.80525C4.97111 8.83736 4.90463 8.86545 4.83678 8.89221C4.01451 9.22266 3.6183 9.99594 3.67257 10.6769C3.74585 11.6134 4.36594 12.2957 5.23299 12.4175C5.55729 12.463 5.89108 12.4456 6.22081 12.4536C6.47048 12.4589 6.6428 12.5927 6.64687 12.7894C6.6523 12.9927 6.4759 13.1466 6.21945 13.1479C5.43653 13.1506 4.6536 13.1519 3.87068 13.1453C3.71599 13.1439 3.65358 13.1814 3.659 13.3446C3.6685 13.7205 3.66443 14.0992 3.66036 14.4764C3.65765 14.6089 3.70514 14.657 3.84218 14.6544C4.2194 14.6463 4.59661 14.6584 4.97247 14.649C5.12444 14.645 5.16651 14.6985 5.15701 14.8376C5.14615 14.9741 5.15565 15.1119 5.15294 15.2484C5.15158 15.3327 5.17872 15.3755 5.27234 15.3741C5.72961 15.3715 6.18824 15.3728 6.67808 15.3728C6.67808 15.1614 6.68215 14.9581 6.67672 14.7547C6.67401 14.6544 6.70522 14.6062 6.81105 14.5754C7.83415 14.2691 8.37962 13.2844 8.09603 12.2676C8.08924 12.2409 8.07974 12.2168 8.05939 12.1499C9.18018 12.7961 10.358 13.1252 11.6443 13.1814C11.5954 13.3379 11.5602 13.4744 11.51 13.6041C10.7175 15.6765 9.22631 16.9568 7.03087 17.4318C6.8002 17.4813 6.56003 17.4866 6.32529 17.516C6.25202 17.5254 6.1801 17.5428 6.10683 17.5575H5.72419ZM6.50063 10.9505C6.16141 10.9505 5.85475 10.9598 5.55081 10.9478C5.33506 10.9384 5.19801 10.7739 5.21023 10.5719C5.22108 10.3806 5.36627 10.2722 5.58744 10.2521C5.82354 10.2307 5.99179 10.2963 6.12206 10.5023C6.21975 10.6535 6.3568 10.7819 6.50063 10.9505Z" fill="#929292"/>
</svg>
