<svg viewBox="0 0 18 18" fill="none" xmlns="http://www.w3.org/2000/svg">
<path fill-rule="evenodd" clip-rule="evenodd" d="M2.84364 15.9459C2.96519 16.2915 2.88766 16.6936 2.61105 16.9703C2.2234 17.3579 1.60185 17.3553 1.21683 16.9703L0.287781 16.0412C-0.0952697 15.6575 -0.0965837 15.032 0.287781 14.647C0.566363 14.3691 0.965839 14.2915 1.31078 14.4131L2.84364 15.9459ZM7.08276 7.96889L13.4967 0.699469C14.2878 -0.196725 15.6038 -0.23549 16.4442 0.604856L16.6538 0.81445C17.4935 1.65414 17.4508 2.97412 16.5585 3.7619L9.28974 10.1759L7.08276 7.96889ZM6.64723 8.46231L1.79175 13.965L3.29373 15.4669L8.79638 10.6115L6.64723 8.46231Z" />
</svg>
