<svg viewBox="0 0 15 12" fill="none" xmlns="http://www.w3.org/2000/svg">
<path fill-rule="evenodd" clip-rule="evenodd" d="M10 4.31012V4.69012C10 4.86012 9.86 5.00012 9.69 5.00012H3V4.30012C3 4.20012 3.01 4.09012 3.04 4.00012H9.69C9.86 4.00012 10 4.14012 10 4.31012" fill="#A0A7B2"/>
<path fill-rule="evenodd" clip-rule="evenodd" d="M10 6.31012V6.69012C10 6.86012 9.86 7.00012 9.69 7.00012H3V6.00012H9.69C9.86 6.00012 10 6.14012 10 6.31012" fill="#A0A7B2"/>
<path fill-rule="evenodd" clip-rule="evenodd" d="M15 4V10.7C15 11.418 14.418 12 13.7 12H4.3C3.582 12 3 11.418 3 10.7V10H11.23C12.208 10 13 9.208 13 8.231V3H14C14.553 3 15 3.448 15 4" fill="#A0A7B2"/>
<path fill-rule="evenodd" clip-rule="evenodd" d="M2.32024 3C2.13924 3 2.00024 2.86 2.00024 2.69V2.31C2.00024 2.14 2.13924 2 2.32024 2H9.69024C9.86024 2 10.0002 2.14 10.0002 2.31V2.69C10.0002 2.86 9.86024 3 9.69024 3H2.32024ZM10.0002 4.69C10.0002 4.86 9.86024 5 9.69024 5H2.32024C2.13924 5 2.00024 4.86 2.00024 4.69V4.31C2.00024 4.14 2.13924 4 2.32024 4H9.69024C9.86024 4 10.0002 4.14 10.0002 4.31V4.69ZM10.0002 6.69C10.0002 6.86 9.86024 7 9.69024 7H2.32024C2.13924 7 2.00024 6.86 2.00024 6.69V6.31C2.00024 6.14 2.13924 6 2.32024 6H9.69024C9.86024 6 10.0002 6.14 10.0002 6.31V6.69ZM10.7002 0H1.29924C0.582244 0 0.000244141 0.582 0.000244141 1.3V7.7C0.000244141 8.418 0.582244 9 1.29924 9H10.7002C11.4182 9 12.0002 8.418 12.0002 7.7V1.3C12.0002 0.582 11.4182 0 10.7002 0V0Z" fill="#A0A7B2"/>
<path fill-rule="evenodd" clip-rule="evenodd" d="M10 2.31012V2.69012C10 2.86012 9.86 3.00012 9.69 3.00012H2.32C2.14 3.00012 2 2.86012 2 2.69012V2.31012C2 2.14012 2.14 2.00012 2.32 2.00012H9.69C9.86 2.00012 10 2.14012 10 2.31012" fill="#A0A7B2"/>
<path fill-rule="evenodd" clip-rule="evenodd" d="M10 4.31012V4.69012C10 4.86012 9.86 5.00012 9.69 5.00012H2.32C2.14 5.00012 2 4.86012 2 4.69012V4.31012C2 4.14012 2.14 4.00012 2.32 4.00012H9.69C9.86 4.00012 10 4.14012 10 4.31012" fill="#A0A7B2"/>
<path fill-rule="evenodd" clip-rule="evenodd" d="M10 6.31012V6.69012C10 6.86012 9.86 7.00012 9.69 7.00012H2.32C2.14 7.00012 2 6.86012 2 6.69012V6.31012C2 6.14012 2.14 6.00012 2.32 6.00012H9.69C9.86 6.00012 10 6.14012 10 6.31012" fill="#A0A7B2"/>
<path fill-rule="evenodd" clip-rule="evenodd" d="M10 6.31012V6.69012C10 6.86012 9.86 7.00012 9.69 7.00012H2.32C2.14 7.00012 2 6.86012 2 6.69012V6.31012C2 6.14012 2.14 6.00012 2.32 6.00012H9.69C9.86 6.00012 10 6.14012 10 6.31012" fill="white"/>
<path fill-rule="evenodd" clip-rule="evenodd" d="M10 4.31012V4.69012C10 4.86012 9.86 5.00012 9.69 5.00012H2.32C2.14 5.00012 2 4.86012 2 4.69012V4.31012C2 4.14012 2.14 4.00012 2.32 4.00012H9.69C9.86 4.00012 10 4.14012 10 4.31012" fill="white"/>
<path fill-rule="evenodd" clip-rule="evenodd" d="M10 2.31012V2.69012C10 2.86012 9.86 3.00012 9.69 3.00012H2.32C2.14 3.00012 2 2.86012 2 2.69012V2.31012C2 2.14012 2.14 2.00012 2.32 2.00012H9.69C9.86 2.00012 10 2.14012 10 2.31012" fill="white"/>
</svg>
