<svg viewBox="0 0 17 16" fill="none" xmlns="http://www.w3.org/2000/svg">
<path  d="M12.8994 6.39996C12.8994 7.89996 12.3994 9.29999 11.5 10.4L16.2002 15.1L15.2998 16L10.5996 11.3C9.5 12.2 8.09961 12.7 6.59961 12.7C3.09961 12.7 0.299805 9.89996 0.299805 6.39996C0.299805 2.89996 3.09961 0.0999756 6.59961 0.0999756C10.0996 0.0999756 12.8994 2.89996 12.8994 6.39996ZM1.5 6.29993C1.5 9.09998 3.7998 11.4 6.59961 11.4C9.40039 11.4 11.7002 9.09998 11.7002 6.29993C11.7002 3.49994 9.40039 1.19995 6.59961 1.19995C3.7998 1.19995 1.5 3.49994 1.5 6.29993Z" />
</svg>
