<svg width="19" height="16" viewBox="0 0 19 16" fill="none" xmlns="http://www.w3.org/2000/svg">
<rect width="17.5" height="14.7" fill="black" fill-opacity="0" transform="translate(0.666992 0.5)"/>
<path d="M18.167 2.29467C18.0831 2.96193 17.1275 3.6314 16.5485 4.13858C17.1198 12.6669 7.60493 17.9868 0.666992 13.6652C2.61285 13.68 4.76952 13.1391 5.92709 12.0262C4.24404 11.7501 3.05163 10.9772 2.58896 9.46531C3.08194 9.41819 3.77384 9.57253 4.10629 9.3629C2.56674 8.77075 1.34937 7.85245 1.27395 5.77751C1.82232 5.83681 2.10738 6.16274 2.79125 6.08485C1.79572 5.43846 0.658933 2.98064 1.67857 1.16787C3.48532 3.19669 5.74074 4.77121 9.26526 5.06049C8.39093 1.29527 13.3195 -1.0378 15.5369 1.68006C16.399 1.49456 17.1256 1.1718 17.8635 0.86056C17.5613 1.71553 16.9474 2.25466 16.3462 2.80687C16.9996 2.68326 17.69 2.5971 18.167 2.29467Z" />
</svg>
