<svg  viewBox="0 0 18 12" fill="none" xmlns="http://www.w3.org/2000/svg">
<g opacity="0.8">
<!-- <rect width="18" height="12" fill="black" fill-opacity="0"/> -->
<!-- <rect width="18" height="12" fill="black" fill-opacity="0"/> -->
<path  d="M13.0238 6.2882C13.0238 5.14886 12.743 4.31198 12.2109 3.62167C10.6799 1.63554 7.70903 1.49767 6.01619 3.33414C4.61145 4.85807 4.61331 7.21143 6.02047 8.70438C7.29117 10.0526 9.29728 10.4007 10.9023 9.52071C12.235 8.78996 12.9558 7.62937 13.0238 6.2882V6.2882ZM17.9697 5.99815L17.9686 6.29173C17.894 6.40677 17.8205 6.52255 17.7447 6.63676C16.4275 8.62116 14.7738 10.1954 12.6399 11.1694C10.7178 12.0467 8.73278 12.2628 6.70342 11.6552C3.8197 10.7918 1.67236 8.91613 0.0872404 6.29147C-0.0252859 6.10509 -0.0293912 5.9118 0.0774509 5.7194C1.38201 3.37004 3.20742 1.64307 5.65194 0.681453C7.5504 -0.0653355 9.49278 -0.19018 11.445 0.423655C14.3501 1.33716 16.3996 3.36542 17.9697 5.99815V5.99815Z" />
<path fill-rule="evenodd" clip-rule="evenodd" d="M7.76726 4.42854C8.54639 3.81134 9.66378 3.8676 10.3762 4.55355C11.2216 5.36747 11.2057 6.68578 10.3409 7.47755C9.19193 8.52962 7.34576 7.90893 7.03626 6.36478C7.01125 6.23995 7.00872 6.11005 7 6.02412C7.01733 5.33114 7.27936 4.81509 7.76726 4.42854Z" />
</g>
</svg>
