<svg width="23" height="13" viewBox="0 0 23 13" fill="none" xmlns="http://www.w3.org/2000/svg">
<path fill-rule="evenodd" clip-rule="evenodd" d="M13.6584 3.7415C13.6584 4.32705 13.6506 4.91261 13.6629 5.49817C13.6662 5.67817 13.7051 5.86483 13.764 6.03594C13.8762 6.35817 14.1406 6.48372 14.4184 6.28928C14.7618 6.05261 15.0884 5.77039 15.3562 5.4515C15.9306 4.77039 16.3173 3.96817 16.6795 3.16039C16.9318 2.60039 17.1573 2.02817 17.3884 1.45928C17.5151 1.14928 17.7806 0.943721 18.1129 0.94261C19.4295 0.939277 20.7462 0.938166 22.0629 0.94261C22.5084 0.944832 22.7584 1.25372 22.5895 1.66594C22.3862 2.16039 22.1262 2.63705 21.8451 3.09261C21.1206 4.26705 20.2884 5.36483 19.3973 6.41928C18.894 7.01372 18.9218 7.59261 19.4673 8.16594C20.0984 8.8315 20.7384 9.48705 21.3695 10.1515C21.6495 10.4471 21.9295 10.7459 22.1873 11.0604C22.3073 11.2059 22.3962 11.3848 22.4651 11.5626C22.7118 12.2004 22.4229 12.6504 21.7362 12.6848C21.1218 12.7159 20.5062 12.7282 19.8906 12.7293C19.3762 12.7304 18.8595 12.7215 18.3462 12.6859C17.764 12.6448 17.274 12.4037 16.8784 11.9582C16.3429 11.3526 15.7962 10.7559 15.2318 10.1771C15.0784 10.0193 14.8584 9.90817 14.6484 9.82817C14.3562 9.71705 14.1506 9.81372 13.9829 10.0804C13.6151 10.6615 13.5073 11.3059 13.5318 11.9793C13.5418 12.2493 13.4151 12.4204 13.1851 12.5215C13.0595 12.5771 12.924 12.6259 12.7895 12.6382C10.6673 12.8371 8.72065 12.3793 7.02065 11.0515C6.22731 10.4304 5.59954 9.64705 4.99398 8.84817C3.79287 7.26483 2.84954 5.52817 1.97398 3.75261C1.64731 3.0915 1.30954 2.43483 0.981759 1.77372C0.748426 1.30372 0.971759 0.91261 1.50065 0.898166C2.07731 0.883721 2.65398 0.899277 3.23065 0.908166C3.69176 0.914832 4.15287 0.913721 4.61176 0.943721C5.00398 0.970388 5.24398 1.18483 5.42065 1.55817C5.87398 2.51705 6.36509 3.45817 6.86731 4.3915C7.10731 4.83705 7.3862 5.26594 7.6862 5.67261C7.92398 5.99705 8.24287 6.24817 8.64398 6.36372C8.93065 6.44594 9.15509 6.3115 9.20731 6.01817C9.25176 5.76928 9.29287 5.51705 9.30065 5.26483C9.3262 4.39483 9.35731 3.52594 9.34398 2.65594C9.33842 2.3415 9.23287 2.02261 9.1362 1.71705C9.03842 1.41039 8.74287 1.33483 8.47398 1.23372C8.3562 1.18928 8.25731 1.09705 8.14954 1.02594C8.2262 0.911499 8.28065 0.765943 8.38398 0.685943C8.69843 0.448166 9.0862 0.427055 9.45843 0.39261C10.5418 0.293721 11.6251 0.324832 12.7062 0.434832C13.0384 0.469277 13.3106 0.625943 13.424 0.938166C13.5373 1.2515 13.6295 1.58705 13.6484 1.91705C13.684 2.52372 13.6584 3.13372 13.6584 3.7415" fill="white"/>
</svg>
